<svg xmlns="http://www.w3.org/2000/svg" xmlns:xlink="http://www.w3.org/1999/xlink" width="600" zoomAndPan="magnify" viewBox="0 0 450 495.12" height="650" preserveAspectRatio="xMidYMid meet" version="1.0"><defs><clipPath id="c68b243a00"><path d="M 1.011719 1.078125 L 118.988281 1.078125 L 118.988281 119.050781 L 1.011719 119.050781 Z M 1.011719 1.078125 " clip-rule="nonzero"/></clipPath><clipPath id="858b8ee499"><path d="M 60 1.078125 C 27.421875 1.078125 1.011719 27.488281 1.011719 60.066406 C 1.011719 92.640625 27.421875 119.050781 60 119.050781 C 92.578125 119.050781 118.988281 92.640625 118.988281 60.066406 C 118.988281 27.488281 92.578125 1.078125 60 1.078125 Z M 60 1.078125 " clip-rule="nonzero"/></clipPath><clipPath id="fc8fb31cd2"><path d="M 0.0117188 0.078125 L 117.988281 0.078125 L 117.988281 118.050781 L 0.0117188 118.050781 Z M 0.0117188 0.078125 " clip-rule="nonzero"/></clipPath><clipPath id="eb82e84e11"><path d="M 59 0.078125 C 26.421875 0.078125 0.0117188 26.488281 0.0117188 59.066406 C 0.0117188 91.640625 26.421875 118.050781 59 118.050781 C 91.578125 118.050781 117.988281 91.640625 117.988281 59.066406 C 117.988281 26.488281 91.578125 0.078125 59 0.078125 Z M 59 0.078125 " clip-rule="nonzero"/></clipPath><clipPath id="4ec6544d40"><rect x="0" width="118" y="0" height="119"/></clipPath><clipPath id="e277eab435"><path d="M 5.003906 5.070312 L 115 5.070312 L 115 115 L 5.003906 115 Z M 5.003906 5.070312 " clip-rule="nonzero"/></clipPath><clipPath id="b7ba730b72"><rect x="0" width="120" y="0" height="120"/></clipPath></defs><g transform="matrix(1, 0, 0, 1, 165, 212)"><g clip-path="url(#b7ba730b72)"><g clip-path="url(#c68b243a00)"><g clip-path="url(#858b8ee499)"><g transform="matrix(1, 0, 0, 1, 1, 1)"><g clip-path="url(#4ec6544d40)"><g clip-path="url(#fc8fb31cd2)"><g clip-path="url(#eb82e84e11)"><path fill="#008b01" d="M 0.0117188 0.078125 L 117.988281 0.078125 L 117.988281 118.050781 L 0.0117188 118.050781 Z M 0.0117188 0.078125 " fill-opacity="1" fill-rule="nonzero"/></g></g></g></g></g></g><g clip-path="url(#e277eab435)"><path fill="#008b01" d="M 114.910156 60.027344 C 114.910156 90.375 90.308594 114.972656 59.960938 114.972656 C 29.613281 114.972656 5.015625 90.375 5.015625 60.027344 C 5.011719 29.679688 29.613281 5.078125 59.960938 5.078125 C 90.308594 5.078125 114.910156 29.679688 114.910156 60.027344 " fill-opacity="1" fill-rule="nonzero"/></g><path fill="#ffffff" d="M 24.832031 89.238281 L 82.128906 89.238281 L 95.089844 77.214844 L 95.089844 51.949219 L 24.832031 51.949219 Z M 82.613281 91.421875 L 23.660156 91.421875 C 23.007812 91.421875 22.484375 90.929688 22.484375 90.332031 L 22.484375 50.855469 C 22.484375 50.257812 23.007812 49.765625 23.660156 49.765625 L 96.265625 49.765625 C 96.914062 49.765625 97.4375 50.257812 97.4375 50.855469 L 97.4375 77.671875 C 97.4375 77.957031 97.316406 78.234375 97.09375 78.4375 L 83.441406 91.101562 C 83.222656 91.304688 82.925781 91.421875 82.613281 91.421875 " fill-opacity="1" fill-rule="nonzero"/><path fill="#ffffff" d="M 82.691406 91.421875 C 82.535156 91.421875 82.386719 91.390625 82.242188 91.339844 C 81.800781 91.167969 81.511719 90.773438 81.511719 90.332031 L 81.511719 77.671875 C 81.511719 77.070312 82.042969 76.582031 82.691406 76.582031 L 96.265625 76.582031 C 96.742188 76.582031 97.167969 76.84375 97.351562 77.25 C 97.53125 77.65625 97.433594 78.128906 97.097656 78.4375 L 83.519531 91.097656 C 83.296875 91.308594 82.996094 91.421875 82.691406 91.421875 " fill-opacity="1" fill-rule="nonzero"/><path fill="#ffffff" d="M 45.761719 73.015625 C 48.371094 75.660156 49.605469 79.304688 51.796875 82.269531 C 53.042969 83.957031 55.714844 84.859375 57.332031 82.984375 C 60.050781 79.824219 61.726562 75.902344 64.382812 72.644531 C 67.265625 69.117188 70.601562 65.96875 74.15625 63.125 C 75.660156 61.925781 75.402344 59.386719 74.15625 58.140625 C 72.6875 56.671875 70.671875 56.945312 69.175781 58.140625 C 65.601562 60.992188 62.328125 64.15625 59.398438 67.664062 C 57.984375 69.359375 56.660156 71.144531 55.421875 72.976562 C 54.335938 74.589844 53.613281 76.523438 52.34375 78 C 54.191406 78.238281 56.035156 78.476562 57.878906 78.714844 C 55.3125 75.238281 53.816406 71.152344 50.75 68.027344 C 47.558594 64.78125 42.578125 69.769531 45.761719 73.015625 " fill-opacity="1" fill-rule="nonzero"/><path fill="#ffffff" d="M 39.3125 45.867188 C 37.023438 45.867188 35.167969 44.007812 35.167969 41.726562 L 35.128906 28.636719 L 43.488281 28.636719 L 43.449219 41.726562 C 43.449219 44.007812 41.59375 45.867188 39.3125 45.867188 " fill-opacity="1" fill-rule="nonzero"/><path fill="#ffffff" d="M 80.613281 45.867188 C 78.328125 45.867188 76.472656 44.007812 76.472656 41.726562 L 76.433594 28.632812 L 84.792969 28.632812 L 84.753906 41.726562 C 84.753906 44.007812 82.894531 45.867188 80.613281 45.867188 " fill-opacity="1" fill-rule="nonzero"/><path fill="#ffffff" d="M 80.613281 47.148438 C 82.90625 47.148438 84.761719 45.292969 84.761719 43 L 84.792969 31.984375 L 76.433594 31.984375 L 76.464844 43 C 76.464844 45.292969 78.320312 47.148438 80.613281 47.148438 " fill-opacity="1" fill-rule="nonzero"/><path fill="#ffffff" d="M 28.78125 36.167969 L 27.199219 36.167969 C 27.097656 36.195312 26.96875 36.472656 26.96875 37.019531 L 26.96875 46.222656 C 26.96875 46.875 26.441406 47.402344 25.789062 47.402344 C 25.140625 47.402344 24.617188 46.875 24.617188 46.222656 L 24.617188 37.019531 C 24.617188 35.929688 24.921875 35.078125 25.523438 34.5 C 26.1875 33.859375 26.964844 33.824219 27.1875 33.816406 L 28.78125 33.816406 C 29.429688 33.816406 29.953125 34.347656 29.953125 34.996094 C 29.953125 35.640625 29.429688 36.167969 28.78125 36.167969 Z M 96.265625 31.984375 L 87.140625 31.984375 L 87.109375 43 C 87.109375 46.582031 84.195312 49.5 80.613281 49.5 C 77.03125 49.5 74.113281 46.582031 74.113281 43.007812 L 74.085938 31.984375 L 45.839844 31.984375 L 45.804688 43 C 45.804688 46.582031 42.894531 49.5 39.3125 49.5 C 35.726562 49.5 32.8125 46.582031 32.8125 43.007812 L 32.785156 31.984375 L 23.660156 31.984375 C 23.007812 31.984375 22.484375 32.507812 22.484375 33.160156 L 22.484375 50.6875 C 22.484375 51.332031 23.007812 51.859375 23.660156 51.859375 L 96.265625 51.859375 C 96.914062 51.859375 97.4375 51.332031 97.4375 50.6875 L 97.4375 33.160156 C 97.4375 32.507812 96.914062 31.984375 96.265625 31.984375 " fill-opacity="1" fill-rule="nonzero"/><path fill="#ffffff" d="M 39.3125 47.148438 C 41.597656 47.148438 43.460938 45.292969 43.460938 43 L 43.488281 31.984375 L 35.128906 31.984375 L 35.164062 43 C 35.164062 45.292969 37.019531 47.148438 39.3125 47.148438 " fill-opacity="1" fill-rule="nonzero"/></g></g></svg>