<svg xmlns="http://www.w3.org/2000/svg" width="500" height="145" viewBox="0 0 500 145">
<g>
<path d="M 460.39 126.17 C459.76,127.20 163.29,127.28 162.67,126.25 C162.29,125.60 166.58,105.38 182.37,33.50 L 185.67 18.50 L 334.83 18.25 C425.95,18.09 484.00,18.35 484.00,18.92 C484.00,19.43 480.38,36.42 475.97,56.67 C463.18,115.27 460.94,125.29 460.39,126.17 ZM 397.87 107.55 C403.17,110.54 412.70,107.66 416.56,101.90 C419.01,98.25 419.68,98.26 420.50,101.99 C421.26,105.45 425.29,109.00 428.47,109.00 C429.67,109.00 432.76,107.94 435.33,106.64 L 440.00 104.27 L 440.00 106.64 C440.00,108.66 440.49,109.00 443.44,109.00 C445.33,109.00 447.14,108.58 447.46,108.07 C448.78,105.94 458.98,60.17 458.99,56.36 C459.00,50.03 456.58,47.73 449.40,47.26 C441.95,46.77 435.66,49.70 432.01,55.37 L 429.51 59.24 L 428.70 55.15 C427.67,49.95 424.11,47.00 418.83,47.00 C409.55,47.00 402.70,53.32 398.67,65.61 C396.07,73.52 392.00,92.00 392.00,95.89 C392.00,99.67 395.21,106.04 397.87,107.55 ZM 222.50 108.15 C230.83,110.86 240.03,105.77 244.93,95.75 C247.97,89.51 254.36,62.78 255.65,50.90 C256.88,39.49 252.71,34.00 242.83,34.00 C232.17,34.00 225.16,40.01 221.52,52.26 C217.99,64.12 212.88,92.35 213.53,96.38 C214.56,102.81 217.36,106.48 222.50,108.15 ZM 292.65 73.25 L 285.37 108.00 L 290.18 108.00 C292.83,108.00 295.00,107.88 295.00,107.72 C295.00,107.57 296.80,98.53 299.00,87.62 C301.20,76.72 303.00,66.50 303.00,64.90 C303.00,63.31 303.35,62.00 303.78,62.00 C304.20,62.00 305.81,71.34 307.35,82.75 C310.03,102.61 310.40,106.95 312.34,107.83 C312.89,108.07 313.55,108.05 314.41,108.02 C314.72,108.01 315.06,108.00 315.43,108.00 L 319.64 108.00 L 326.89 73.25 C330.88,54.14 334.39,37.46 334.70,36.19 C335.22,33.99 335.02,33.90 330.43,34.19 L 325.61 34.50 L 322.41 49.50 C320.65,57.75 318.67,67.76 318.01,71.75 C317.36,75.74 316.51,79.00 316.12,79.00 C315.74,79.00 314.14,68.88 312.56,56.50 L 309.68 34.00 L 305.36 34.00 C301.71,34.00 300.95,34.35 300.48,36.25 C300.18,37.49 296.65,54.14 292.65,73.25 ZM 246.92 103.25 L 245.03 108.00 L 250.40 108.00 C250.87,108.00 251.30,108.01 251.70,108.01 C253.26,108.03 254.23,108.05 254.98,107.65 C256.37,106.90 256.99,104.73 259.29,98.50 L 260.77 94.50 L 266.88 94.20 L 273.00 93.90 L 273.00 108.00 L 282.84 108.00 L 283.40 101.75 C283.70,98.31 284.20,86.28 284.49,75.00 C284.79,63.72 285.30,49.89 285.64,44.25 L 286.24 34.00 L 279.87 34.01 L 273.50 34.03 L 261.15 66.26 C254.36,83.99 247.96,100.64 246.92,103.25 ZM 334.27 107.58 C341.26,110.74 352.62,107.06 357.44,100.07 C360.47,95.67 362.27,88.02 361.41,83.15 C360.72,79.22 356.28,69.85 350.91,61.00 C345.09,51.39 346.92,42.00 354.62,42.00 C359.14,42.00 360.37,44.53 359.49,52.10 L 358.80 58.00 L 362.38 58.00 C365.39,58.00 366.22,57.49 367.67,54.75 C368.76,52.70 369.42,49.15 369.45,45.17 C369.50,39.43 369.23,38.60 366.69,36.42 C364.32,34.37 362.84,34.00 357.09,34.00 C349.38,34.00 345.90,35.75 340.64,42.29 C338.12,45.42 337.52,47.18 337.18,52.49 C336.69,60.28 337.49,62.72 344.69,75.33 C350.74,85.93 351.85,91.18 349.11,96.30 C347.67,98.99 343.72,100.89 340.89,100.26 C337.45,99.50 336.53,93.51 338.65,85.75 C339.06,84.29 338.45,84.00 335.02,84.00 C331.31,84.00 330.76,84.33 329.54,87.25 C328.80,89.04 327.90,92.53 327.56,95.00 C326.78,100.51 329.36,105.35 334.27,107.58 ZM 409.41 97.75 C407.52,100.66 404.25,100.64 402.91,97.70 C402.10,95.92 402.56,92.23 404.95,81.45 C406.66,73.78 408.76,65.35 409.62,62.71 C412.77,53.10 419.83,52.70 418.57,62.21 L 417.93 67.00 L 422.06 67.00 C425.35,67.00 426.29,66.59 426.71,65.00 C427.39,62.41 429.00,62.41 429.00,65.00 C429.00,66.65 429.67,67.00 432.84,67.00 C436.45,67.00 436.76,66.76 437.87,63.05 C439.02,59.21 443.01,55.00 445.51,55.00 C448.58,55.00 449.26,57.76 447.90,64.61 L 446.59 71.24 L 439.50 74.47 C431.47,78.13 426.21,82.34 423.60,87.18 C421.91,90.32 421.56,90.48 417.04,90.16 C412.51,89.84 412.22,89.97 411.56,92.66 C411.18,94.22 410.21,96.51 409.41,97.75 ZM 191.65 73.25 L 184.37 108.00 L 197.18 108.00 C208.72,108.00 210.00,107.82 210.01,106.25 C210.02,105.29 210.30,103.49 210.63,102.25 C211.21,100.07 211.01,100.00 204.12,100.00 C200.20,100.00 197.00,99.58 197.00,99.07 C197.00,98.55 199.93,84.30 203.50,67.39 C207.07,50.48 210.00,36.05 210.00,35.32 C210.00,34.40 208.48,34.00 205.02,34.00 C200.68,34.00 199.97,34.29 199.48,36.25 C199.18,37.49 195.65,54.14 191.65,73.25 ZM 234.30 96.22 C230.70,102.35 224.00,101.30 224.00,94.59 C224.00,89.80 232.74,49.41 234.52,45.96 C236.04,43.02 239.26,41.52 242.67,42.17 C244.07,42.44 244.56,43.58 244.77,47.01 C245.12,52.68 236.73,92.07 234.30,96.22 ZM 372.75 108.59 C376.94,109.40 377.91,109.23 380.99,107.19 C382.91,105.91 384.48,104.11 384.49,103.18 C384.50,101.05 382.01,99.06 380.21,99.75 C379.29,100.10 378.92,99.65 379.12,98.39 C379.28,97.35 378.87,95.53 378.22,94.34 C377.18,92.45 376.71,92.32 374.52,93.34 C373.14,93.98 372.01,95.06 372.01,95.75 C372.00,96.47 370.73,97.00 369.00,97.00 C366.00,99.32 365.47,100.00 364.83,100.00 C364.18,100.00 364.63,101.04 365.83,102.31 C367.02,103.59 368.00,105.31 368.00,106.15 C368.00,107.16 369.57,107.97 372.75,108.59 ZM 274.06 84.75 C274.02,85.58 272.30,86.00 269.00,86.00 C266.25,86.00 264.00,85.81 264.00,85.57 C264.00,84.04 275.35,52.00 275.89,52.00 C276.26,52.00 276.01,59.09 275.34,67.75 C274.67,76.41 274.10,84.06 274.06,84.75 ZM 439.38 97.75 C437.47,100.77 432.41,100.87 431.47,97.91 C430.36,94.41 431.93,89.15 435.20,85.43 C438.59,81.57 444.00,78.25 444.00,80.03 C444.00,82.86 440.64,95.76 439.38,97.75 Z" fill="rgb(1,5,0)"/>
<path d="M 157.36 125.25 C156.90,126.89 153.01,127.00 93.93,127.00 C34.66,127.00 31.00,126.90 31.02,125.25 C31.03,124.29 31.71,120.35 32.54,116.50 C33.36,112.65 35.13,104.32 36.47,98.00 C40.89,77.12 53.06,21.53 53.60,19.75 C54.10,18.11 57.98,18.00 116.60,18.00 C171.22,18.00 179.14,18.19 179.64,19.50 C179.96,20.33 179.50,24.04 178.63,27.75 C177.76,31.46 174.53,46.20 171.46,60.50 C162.65,101.57 157.90,123.36 157.36,125.25 ZM 111.20 118.29 C117.29,119.45 126.68,118.88 130.60,117.09 C135.96,114.66 141.38,109.15 144.53,102.94 C147.42,97.24 160.03,45.97 159.95,40.23 C159.89,35.04 157.12,29.96 153.10,27.62 C148.38,24.87 136.20,24.93 129.95,27.72 C119.83,32.24 116.98,37.74 110.14,66.00 C103.03,95.37 101.89,101.44 102.62,106.04 C103.42,111.00 108.11,117.70 111.20,118.29 ZM 57.90 116.72 C60.46,118.44 62.72,119.00 67.05,119.00 C71.96,119.00 73.56,118.49 77.96,115.53 L 83.12 112.05 L 84.18 115.08 C85.12,117.79 85.61,118.07 88.82,117.80 L 92.40 117.50 L 98.00 94.00 C101.08,81.07 103.92,69.26 104.32,67.75 L 105.04 65.00 L 94.64 65.00 C83.04,65.00 82.90,65.07 81.22,72.00 C79.02,81.04 79.02,81.28 81.14,83.12 L 83.19 84.90 L 80.92 92.54 C79.16,98.48 78.14,100.38 76.34,101.06 C72.90,102.37 71.00,101.21 71.00,97.80 C71.00,93.97 81.53,50.58 83.52,46.19 C84.83,43.30 85.44,42.92 88.26,43.19 C91.39,43.49 91.49,43.63 91.12,47.50 C90.91,49.70 90.69,52.85 90.62,54.50 L 90.50 57.50 L 98.09 57.79 C103.90,58.01 105.98,57.72 106.94,56.58 C107.65,55.72 108.42,50.84 108.73,45.25 C109.60,29.48 106.56,26.00 91.91,26.00 C85.42,26.00 82.78,26.47 79.23,28.24 C74.16,30.77 69.02,36.56 66.55,42.50 C65.08,46.03 58.85,70.42 54.67,89.00 C51.10,104.84 52.02,112.78 57.90,116.72 ZM 127.97 99.06 C126.24,102.29 121.00,100.63 121.00,96.85 C121.00,93.75 131.81,49.96 133.49,46.25 C134.60,43.82 135.61,43.00 137.52,43.00 C140.75,43.00 141.43,44.81 140.21,50.21 C136.10,68.40 128.81,97.48 127.97,99.06 Z" fill="rgb(21,111,6)"/>
<path d="M 67.48 18.17 C55.29,18.37 53.89,18.81 53.60,19.75 C53.06,21.53 40.89,77.12 36.47,98.00 C35.13,104.32 33.36,112.65 32.54,116.50 C31.71,120.35 31.03,124.29 31.02,125.25 C31.01,126.43 32.89,126.82 55.88,126.94 C30.08,126.82 24.00,126.48 24.00,125.64 C24.00,123.81 27.72,105.84 34.48,75.00 C37.56,60.97 41.46,42.97 43.16,35.00 C44.85,27.02 46.69,19.94 47.24,19.25 C47.70,18.68 52.90,18.34 67.48,18.17 ZM 80.83 127.00 C84.37,127.00 88.16,127.00 92.21,127.00 L 90.43 127.00 C87.07,127.00 83.87,127.00 80.83,127.00 ZM 114.92 18.00 C112.92,18.00 110.99,18.00 109.12,18.00 C110.60,18.00 112.11,18.00 113.65,18.00 Z" fill="rgb(44,168,14)"/>
<path d="M 80.06 76.93 C79.79,79.64 80.41,81.00 81.91,81.00 C83.36,81.00 83.83,81.09 82.96,84.70 L 81.14 83.12 C79.50,81.70 79.13,81.23 80.06,76.93 ZM 126.50 100.47 C125.50,101.34 124.25,102.00 123.55,102.00 C121.77,102.00 120.14,99.28 120.61,97.11 C121.43,93.36 122.63,88.26 123.97,82.73 C122.25,90.03 121.00,95.80 121.00,96.85 C121.00,99.84 124.28,101.50 126.50,100.47 ZM 129.12 95.29 C130.04,91.96 131.40,86.72 132.90,80.71 C132.29,83.28 131.75,85.58 131.33,87.36 C130.61,90.41 129.85,93.14 129.12,95.29 ZM 140.69 45.17 C140.58,44.58 140.37,44.13 140.06,43.80 C140.34,44.02 140.55,44.27 140.65,44.53 C140.69,44.64 140.70,44.86 140.69,45.17 ZM 78.51 99.01 C77.87,100.15 77.20,100.73 76.34,101.06 C77.18,100.74 77.86,100.15 78.51,99.01 Z" fill="rgb(49,113,37)"/>
<path d="M 52.50 126.93 C23.02,126.80 19.00,126.45 18.58,125.35 C18.24,124.47 18.40,123.22 18.93,122.58 C19.46,121.95 19.99,119.42 20.11,116.96 C20.23,114.32 21.06,111.67 22.13,110.46 C23.29,109.16 24.07,106.44 24.29,102.96 C24.47,99.96 25.16,96.52 25.81,95.32 C26.46,94.11 27.00,90.43 27.00,87.14 C27.00,83.68 27.53,80.58 28.26,79.82 C29.71,78.30 31.92,70.74 33.04,63.50 C33.46,60.75 34.33,57.15 34.98,55.50 C35.65,53.78 35.88,50.71 35.52,48.31 C35.02,44.95 35.35,43.43 37.20,40.58 C38.46,38.62 40.06,37.02 40.75,37.01 C42.46,37.00 42.32,34.90 40.41,32.18 C38.96,30.11 38.96,29.70 40.41,27.49 C41.29,26.16 42.00,24.14 42.00,23.00 C42.00,21.87 42.79,20.69 43.75,20.40 C44.71,20.10 46.28,19.44 47.24,18.93 C47.45,18.81 48.84,18.71 51.26,18.61 C48.65,18.78 47.45,18.99 47.24,19.25 C46.69,19.94 44.85,27.02 43.16,35.00 C41.46,42.97 37.56,60.97 34.48,75.00 C27.72,105.84 24.00,123.81 24.00,125.64 C24.00,126.44 29.54,126.79 52.50,126.93 ZM 157.35 125.29 C157.19,125.81 156.64,126.18 153.83,126.43 C156.60,126.18 157.18,125.82 157.35,125.29 Z" fill="rgb(110,206,86)"/>
<path d="M 52.50 126.93 C53.59,126.93 54.71,126.94 55.87,126.94 L 55.88 126.94 C58.33,126.96 61.01,126.97 63.97,126.97 L 17.00 126.95 L 17.00 124.66 C17.00,123.40 19.27,112.05 22.04,99.43 C24.81,86.82 28.20,71.32 29.57,65.00 C30.95,58.67 33.79,45.62 35.89,36.00 L 39.71 18.50 L 54.64 18.44 C53.32,18.49 52.20,18.55 51.26,18.61 C48.84,18.71 47.45,18.81 47.24,18.93 C46.28,19.44 44.71,20.10 43.75,20.40 C42.79,20.69 42.00,21.87 42.00,23.00 C42.00,24.14 41.29,26.16 40.41,27.49 C38.96,29.70 38.96,30.11 40.41,32.18 C42.32,34.90 42.46,37.00 40.75,37.01 C40.06,37.02 38.46,38.62 37.20,40.58 C35.35,43.43 35.02,44.95 35.52,48.31 C35.88,50.71 35.65,53.78 34.98,55.50 C34.33,57.15 33.46,60.75 33.04,63.50 C31.92,70.74 29.71,78.30 28.26,79.82 C27.53,80.58 27.00,83.68 27.00,87.14 C27.00,90.43 26.46,94.11 25.81,95.32 C25.16,96.52 24.47,99.96 24.29,102.96 C24.07,106.44 23.29,109.16 22.13,110.46 C21.06,111.67 20.23,114.32 20.11,116.96 C19.99,119.42 19.46,121.95 18.93,122.58 C18.40,123.22 18.24,124.47 18.58,125.35 C19.00,126.45 23.02,126.80 52.50,126.93 ZM 179.64 19.49 C179.48,19.10 178.63,18.81 176.04,18.59 C178.67,18.80 179.48,19.09 179.63,19.48 C179.63,19.49 179.63,19.49 179.64,19.49 Z" fill="rgb(118,202,97)"/>
<path d="M 0.00 72.50 L 0.00 0.00 L 250.00 0.00 L 500.00 0.00 L 500.00 72.50 L 500.00 145.00 L 250.00 145.00 L 0.00 145.00 L 0.00 72.50 ZM 157.36 125.26 C157.90,123.36 162.63,101.66 171.46,60.50 C174.53,46.20 177.76,31.46 178.63,27.75 C179.50,24.04 179.95,20.32 179.63,19.48 C179.12,18.14 170.93,18.00 109.38,18.23 L 39.71 18.50 L 35.89 36.00 C33.79,45.62 30.95,58.67 29.57,65.00 C28.20,71.32 24.81,86.82 22.04,99.43 C19.27,112.05 17.00,123.40 17.00,124.66 L 17.00 126.95 L 86.93 126.99 C152.86,127.02 156.89,126.92 157.36,125.26 ZM 460.39 126.17 C460.94,125.29 463.18,115.27 475.97,56.67 C480.38,36.42 484.00,19.43 484.00,18.92 C484.00,18.35 425.95,18.09 334.83,18.25 L 185.67 18.50 L 182.37 33.50 C166.58,105.38 162.29,125.60 162.67,126.25 C163.29,127.28 459.76,127.20 460.39,126.17 ZM 57.90 116.72 C52.02,112.78 51.10,104.84 54.67,89.00 C58.85,70.42 65.08,46.03 66.55,42.50 C69.02,36.56 74.16,30.77 79.23,28.24 C82.78,26.47 85.42,26.00 91.91,26.00 C106.56,26.00 109.60,29.48 108.73,45.25 C108.42,50.84 107.65,55.72 106.94,56.58 C105.98,57.72 103.90,58.01 98.09,57.79 L 90.50 57.50 L 90.62 54.50 C90.69,52.85 90.91,49.70 91.12,47.50 C91.49,43.63 91.39,43.49 88.26,43.19 C85.44,42.92 84.83,43.30 83.52,46.19 C81.53,50.58 71.00,93.97 71.00,97.80 C71.00,101.21 72.90,102.37 76.34,101.06 C78.14,100.38 79.12,98.56 80.74,92.84 C84.05,81.19 84.06,81.00 81.91,81.00 C79.63,81.00 79.39,77.87 81.18,71.62 C83.05,65.07 83.18,65.00 94.64,65.00 L 105.04 65.00 L 104.32 67.75 C103.92,69.26 101.08,81.07 98.00,94.00 L 92.40 117.50 L 88.82 117.80 C85.61,118.07 85.12,117.79 84.18,115.08 L 83.12 112.05 L 77.96 115.53 C73.56,118.49 71.96,119.00 67.05,119.00 C62.72,119.00 60.46,118.44 57.90,116.72 ZM 111.20 118.29 C108.11,117.70 103.42,111.00 102.62,106.04 C101.89,101.44 103.03,95.37 110.14,66.00 C116.98,37.74 119.83,32.24 129.95,27.72 C136.20,24.93 148.38,24.87 153.10,27.62 C157.12,29.96 159.89,35.04 159.95,40.23 C160.03,45.97 147.42,97.24 144.53,102.94 C141.38,109.15 135.96,114.66 130.60,117.09 C126.68,118.88 117.29,119.45 111.20,118.29 ZM 126.89 100.11 C128.03,98.97 129.79,93.92 131.33,87.36 C132.73,81.39 135.54,69.65 137.56,61.28 C139.58,52.91 140.97,45.37 140.65,44.53 C140.33,43.69 138.92,43.00 137.52,43.00 C135.61,43.00 134.60,43.82 133.49,46.25 C132.38,48.70 123.74,82.81 120.61,97.11 C120.14,99.28 121.77,102.00 123.55,102.00 C124.35,102.00 125.85,101.15 126.89,100.11 ZM 372.75 108.59 C369.57,107.97 368.00,107.16 368.00,106.15 C368.00,105.31 367.02,103.59 365.83,102.31 C364.63,101.04 364.18,100.00 364.83,100.00 C365.47,100.00 366.00,99.32 366.00,98.50 C366.00,97.50 367.00,97.00 369.00,97.00 C370.73,97.00 372.00,96.47 372.01,95.75 C372.01,95.06 373.14,93.98 374.52,93.34 C376.71,92.32 377.18,92.45 378.22,94.34 C378.87,95.53 379.28,97.35 379.12,98.39 C378.92,99.65 379.29,100.10 380.21,99.75 C382.01,99.06 384.50,101.05 384.49,103.18 C384.48,104.11 382.91,105.91 380.99,107.19 C377.91,109.23 376.94,109.40 372.75,108.59 ZM 222.50 108.15 C217.36,106.48 214.56,102.81 213.53,96.38 C212.88,92.35 217.99,64.12 221.52,52.26 C225.16,40.01 232.17,34.00 242.83,34.00 C252.71,34.00 256.88,39.49 255.65,50.90 C254.36,62.78 247.97,89.51 244.93,95.75 C240.03,105.77 230.83,110.86 222.50,108.15 ZM 234.30 96.22 C236.73,92.07 245.12,52.68 244.77,47.01 C244.56,43.58 244.07,42.44 242.67,42.17 C239.26,41.52 236.04,43.02 234.52,45.96 C232.74,49.41 224.00,89.80 224.00,94.59 C224.00,101.30 230.70,102.35 234.30,96.22 ZM 334.27 107.58 C329.36,105.35 326.78,100.51 327.56,95.00 C327.90,92.53 328.80,89.04 329.54,87.25 C330.76,84.33 331.31,84.00 335.02,84.00 C338.45,84.00 339.06,84.29 338.65,85.75 C336.53,93.51 337.45,99.50 340.89,100.26 C343.72,100.89 347.67,98.99 349.11,96.30 C351.85,91.18 350.74,85.93 344.69,75.33 C337.49,62.72 336.69,60.28 337.18,52.49 C337.52,47.18 338.12,45.42 340.64,42.29 C345.90,35.75 349.38,34.00 357.09,34.00 C362.84,34.00 364.32,34.37 366.69,36.42 C369.23,38.60 369.50,39.43 369.45,45.17 C369.42,49.15 368.76,52.70 367.67,54.75 C366.22,57.49 365.39,58.00 362.38,58.00 L 358.80 58.00 L 359.49 52.10 C360.37,44.53 359.14,42.00 354.62,42.00 C346.92,42.00 345.09,51.39 350.91,61.00 C356.28,69.85 360.72,79.22 361.41,83.15 C362.27,88.02 360.47,95.67 357.44,100.07 C352.62,107.06 341.26,110.74 334.27,107.58 ZM 397.87 107.55 C395.21,106.04 392.00,99.67 392.00,95.89 C392.00,92.00 396.07,73.52 398.67,65.61 C402.70,53.32 409.55,47.00 418.83,47.00 C424.11,47.00 427.67,49.95 428.70,55.15 L 429.51 59.24 L 432.01 55.37 C435.66,49.70 441.95,46.77 449.40,47.26 C456.58,47.73 459.00,50.03 458.99,56.36 C458.98,60.17 448.78,105.94 447.46,108.07 C447.14,108.58 445.33,109.00 443.44,109.00 C440.49,109.00 440.00,108.66 440.00,106.64 L 440.00 104.27 L 435.33 106.64 C432.76,107.94 429.67,109.00 428.47,109.00 C425.29,109.00 421.26,105.45 420.50,101.99 C419.68,98.26 419.01,98.25 416.56,101.90 C412.70,107.66 403.17,110.54 397.87,107.55 ZM 409.41 97.75 C410.21,96.51 411.18,94.22 411.56,92.66 C412.22,89.97 412.51,89.84 417.04,90.16 C421.56,90.48 421.91,90.32 423.60,87.18 C426.21,82.34 431.47,78.13 439.50,74.47 L 446.59 71.24 L 447.90 64.61 C449.26,57.76 448.58,55.00 445.51,55.00 C443.01,55.00 439.02,59.21 437.87,63.05 C436.76,66.76 436.45,67.00 432.84,67.00 C429.67,67.00 429.00,66.65 429.00,65.00 C429.00,62.41 427.39,62.41 426.71,65.00 C426.29,66.59 425.35,67.00 422.06,67.00 L 417.93 67.00 L 418.57 62.21 C419.83,52.70 412.77,53.10 409.62,62.71 C408.76,65.35 406.66,73.78 404.95,81.45 C402.56,92.23 402.10,95.92 402.91,97.70 C404.25,100.64 407.52,100.66 409.41,97.75 ZM 439.38 97.75 C440.64,95.76 444.00,82.86 444.00,80.03 C444.00,78.25 438.59,81.57 435.20,85.43 C431.93,89.15 430.36,94.41 431.47,97.91 C432.41,100.87 437.47,100.77 439.38,97.75 ZM 191.65 73.25 C195.65,54.14 199.18,37.49 199.48,36.25 C199.97,34.29 200.68,34.00 205.02,34.00 C208.48,34.00 210.00,34.40 210.00,35.32 C210.00,36.05 207.07,50.48 203.50,67.39 C199.93,84.30 197.00,98.55 197.00,99.07 C197.00,99.58 200.20,100.00 204.12,100.00 C211.01,100.00 211.21,100.07 210.63,102.25 C210.30,103.49 210.02,105.29 210.01,106.25 C210.00,107.82 208.72,108.00 197.18,108.00 L 184.37 108.00 L 191.65 73.25 ZM 246.92 103.25 C247.96,100.64 254.36,83.99 261.15,66.26 L 273.50 34.03 L 279.87 34.01 L 286.24 34.00 L 285.64 44.25 C285.30,49.89 284.79,63.72 284.49,75.00 C284.20,86.28 283.70,98.31 283.40,101.75 L 282.84 108.00 L 277.92 108.00 L 273.00 108.00 L 273.00 100.95 L 273.00 93.90 L 266.88 94.20 L 260.77 94.50 L 259.29 98.50 C255.44,108.91 256.29,108.00 250.40,108.00 L 245.03 108.00 L 246.92 103.25 ZM 274.06 84.75 C274.10,84.06 274.67,76.41 275.34,67.75 C276.01,59.09 276.26,52.00 275.89,52.00 C275.35,52.00 264.00,84.04 264.00,85.57 C264.00,85.81 266.25,86.00 269.00,86.00 C272.30,86.00 274.02,85.58 274.06,84.75 ZM 292.65 73.25 C296.65,54.14 300.18,37.49 300.48,36.25 C300.95,34.35 301.71,34.00 305.36,34.00 L 309.68 34.00 L 312.56 56.50 C314.14,68.88 315.74,79.00 316.12,79.00 C316.51,79.00 317.36,75.74 318.01,71.75 C318.67,67.76 320.65,57.75 322.41,49.50 L 325.61 34.50 L 330.43 34.19 C335.02,33.90 335.22,33.99 334.70,36.19 C334.39,37.46 330.88,54.14 326.89,73.25 L 319.64 108.00 L 315.43 108.00 C310.36,108.00 311.04,110.13 307.35,82.75 C305.81,71.34 304.20,62.00 303.78,62.00 C303.35,62.00 303.00,63.31 303.00,64.90 C303.00,66.50 301.20,76.72 299.00,87.62 C296.80,98.53 295.00,107.57 295.00,107.72 C295.00,107.88 292.83,108.00 290.18,108.00 L 285.37 108.00 L 292.65 73.25 Z" fill="rgb(253,254,252)"/>
</g>
</svg>