<svg xmlns="http://www.w3.org/2000/svg" xmlns:xlink="http://www.w3.org/1999/xlink" width="600" zoomAndPan="magnify" viewBox="0 0 450 487.499991" height="650" preserveAspectRatio="xMidYMid meet" version="1.0"><defs><clipPath id="8de33c130c"><path d="M 0.96875 0.46875 L 119.03125 0.46875 L 119.03125 118.53125 L 0.96875 118.53125 Z M 0.96875 0.46875 " clip-rule="nonzero"/></clipPath><clipPath id="ed692f5691"><path d="M 60 0.46875 C 27.398438 0.46875 0.96875 26.898438 0.96875 59.5 C 0.96875 92.101562 27.398438 118.53125 60 118.53125 C 92.601562 118.53125 119.03125 92.101562 119.03125 59.5 C 119.03125 26.898438 92.601562 0.46875 60 0.46875 Z M 60 0.46875 " clip-rule="nonzero"/></clipPath><clipPath id="f60b46e6ed"><path d="M 0.96875 0.46875 L 119.03125 0.46875 L 119.03125 118.53125 L 0.96875 118.53125 Z M 0.96875 0.46875 " clip-rule="nonzero"/></clipPath><clipPath id="711315a2af"><path d="M 60 0.46875 C 27.398438 0.46875 0.96875 26.898438 0.96875 59.5 C 0.96875 92.101562 27.398438 118.53125 60 118.53125 C 92.601562 118.53125 119.03125 92.101562 119.03125 59.5 C 119.03125 26.898438 92.601562 0.46875 60 0.46875 Z M 60 0.46875 " clip-rule="nonzero"/></clipPath><clipPath id="bf8c1d07b6"><rect x="0" width="120" y="0" height="119"/></clipPath><clipPath id="f8372a087c"><path d="M 9.664062 9.347656 L 107.535156 9.347656 L 107.535156 107.21875 L 9.664062 107.21875 Z M 9.664062 9.347656 " clip-rule="nonzero"/></clipPath><clipPath id="939c40e9ed"><rect x="0" width="120" y="0" height="119"/></clipPath></defs><g transform="matrix(1, 0, 0, 1, 165, 184)"><g clip-path="url(#939c40e9ed)"><g clip-path="url(#8de33c130c)"><g clip-path="url(#ed692f5691)"><g><g clip-path="url(#bf8c1d07b6)"><g clip-path="url(#f60b46e6ed)"><g clip-path="url(#711315a2af)"><path fill="#008b01" d="M 0.96875 0.46875 L 119.03125 0.46875 L 119.03125 118.53125 L 0.96875 118.53125 Z M 0.96875 0.46875 " fill-opacity="1" fill-rule="nonzero"/></g></g></g></g></g></g><g clip-path="url(#f8372a087c)"><path fill="#ffffff" d="M 107.550781 58.46875 C 107.550781 31.347656 85.636719 9.363281 58.609375 9.363281 C 31.582031 9.363281 9.664062 31.347656 9.664062 58.46875 C 9.664062 81.496094 25.464844 100.820312 46.785156 106.128906 L 46.785156 73.476562 L 36.6875 73.476562 L 36.6875 58.46875 L 46.785156 58.46875 L 46.785156 52.003906 C 46.785156 35.292969 54.320312 27.542969 70.675781 27.542969 C 73.777344 27.542969 79.128906 28.152344 81.316406 28.765625 L 81.316406 42.363281 C 80.160156 42.242188 78.152344 42.179688 75.664062 42.179688 C 67.636719 42.179688 64.535156 45.230469 64.535156 53.160156 L 64.535156 58.464844 L 80.519531 58.464844 L 77.773438 73.472656 L 64.535156 73.472656 L 64.535156 107.207031 C 88.769531 104.273438 107.550781 83.566406 107.550781 58.464844 Z M 107.550781 58.46875 " fill-opacity="1" fill-rule="nonzero"/></g></g></g></svg>