<svg xmlns="http://www.w3.org/2000/svg" xmlns:xlink="http://www.w3.org/1999/xlink" width="600" zoomAndPan="magnify" viewBox="0 0 450 495.12" height="650" preserveAspectRatio="xMidYMid meet" version="1.0"><defs><clipPath id="cc0d9a994a"><path d="M 0.839844 1.15625 L 117.160156 1.15625 L 117.160156 117.480469 L 0.839844 117.480469 Z M 0.839844 1.15625 " clip-rule="nonzero"/></clipPath><clipPath id="954434130e"><path d="M 59 1.15625 C 26.878906 1.15625 0.839844 27.195312 0.839844 59.316406 C 0.839844 91.4375 26.878906 117.480469 59 117.480469 C 91.121094 117.480469 117.160156 91.4375 117.160156 59.316406 C 117.160156 27.195312 91.121094 1.15625 59 1.15625 Z M 59 1.15625 " clip-rule="nonzero"/></clipPath><clipPath id="9f2911dd76"><path d="M 0.839844 0.15625 L 117.160156 0.15625 L 117.160156 116.480469 L 0.839844 116.480469 Z M 0.839844 0.15625 " clip-rule="nonzero"/></clipPath><clipPath id="021f4ab2c3"><path d="M 59 0.15625 C 26.878906 0.15625 0.839844 26.195312 0.839844 58.316406 C 0.839844 90.4375 26.878906 116.480469 59 116.480469 C 91.121094 116.480469 117.160156 90.4375 117.160156 58.316406 C 117.160156 26.195312 91.121094 0.15625 59 0.15625 Z M 59 0.15625 " clip-rule="nonzero"/></clipPath><clipPath id="6090e24318"><rect x="0" width="118" y="0" height="117"/></clipPath><clipPath id="3a687db490"><path d="M 23 15.210938 L 91.871094 15.210938 L 91.871094 104 L 23 104 Z M 23 15.210938 " clip-rule="nonzero"/></clipPath><clipPath id="14ce022aba"><rect x="0" width="118" y="0" height="118"/></clipPath></defs><g transform="matrix(1, 0, 0, 1, 166, 184)"><g clip-path="url(#14ce022aba)"><g clip-path="url(#cc0d9a994a)"><g clip-path="url(#954434130e)"><g transform="matrix(1, 0, 0, 1, 0, 1)"><g clip-path="url(#6090e24318)"><g clip-path="url(#9f2911dd76)"><g clip-path="url(#021f4ab2c3)"><path fill="#008b01" d="M 0.839844 0.15625 L 117.160156 0.15625 L 117.160156 116.480469 L 0.839844 116.480469 Z M 0.839844 0.15625 " fill-opacity="1" fill-rule="nonzero"/></g></g></g></g></g></g><g clip-path="url(#3a687db490)"><path fill="#ffffff" d="M 52.863281 66.894531 L 72.792969 46.945312 C 73.003906 46.746094 73.242188 46.589844 73.507812 46.484375 C 73.777344 46.375 74.054688 46.320312 74.34375 46.320312 C 74.632812 46.320312 74.910156 46.371094 75.179688 46.476562 C 75.449219 46.585938 75.6875 46.738281 75.898438 46.9375 C 76.105469 47.140625 76.261719 47.378906 76.375 47.648438 C 76.484375 47.917969 76.542969 48.195312 76.542969 48.488281 C 76.542969 48.777344 76.488281 49.058594 76.378906 49.328125 C 76.269531 49.597656 76.113281 49.835938 75.90625 50.042969 L 54.164062 71.804688 C 53.738281 72.234375 53.222656 72.449219 52.613281 72.449219 L 52.609375 72.449219 C 52.003906 72.453125 51.488281 72.238281 51.0625 71.8125 C 50.972656 71.722656 50.894531 71.628906 50.820312 71.527344 L 41.867188 60.882812 C 41.695312 60.648438 41.574219 60.386719 41.503906 60.105469 C 41.433594 59.820312 41.421875 59.53125 41.46875 59.242188 C 41.515625 58.953125 41.613281 58.683594 41.765625 58.4375 C 41.921875 58.1875 42.117188 57.976562 42.351562 57.804688 C 42.589844 57.632812 42.851562 57.515625 43.136719 57.449219 C 43.421875 57.382812 43.707031 57.371094 43.996094 57.421875 C 44.285156 57.46875 44.554688 57.570312 44.800781 57.726562 C 45.050781 57.882812 45.257812 58.078125 45.429688 58.316406 Z M 94.863281 65.25 C 94.917969 71.785156 91.117188 79.5 84.167969 86.964844 C 81.171875 90.175781 77.890625 93.0625 74.324219 95.621094 L 74.167969 95.722656 C 74.105469 95.757812 74.046875 95.796875 73.992188 95.84375 L 73.847656 95.960938 C 69.597656 99.027344 65.003906 101.429688 60.058594 103.171875 L 59.433594 103.378906 L 58.804688 103.179688 C 57.300781 102.699219 55.824219 102.140625 54.378906 101.507812 C 54.289062 101.460938 54.199219 101.417969 54.105469 101.382812 L 53.980469 101.332031 C 46.597656 97.898438 40.082031 93.246094 34.433594 87.378906 C 31.472656 84.363281 28.941406 81.023438 26.839844 77.355469 L 26.761719 77.203125 C 26.730469 77.132812 26.691406 77.066406 26.648438 77.003906 L 26.5625 76.863281 C 24.59375 73.453125 23.53125 69.777344 23.375 65.84375 L 23.117188 34.398438 L 23.273438 34.3125 L 58.699219 15.210938 L 58.835938 15.28125 L 94.601562 33.816406 Z M 90.5625 36.296875 L 58.742188 19.8125 L 27.207031 36.816406 L 27.449219 65.8125 C 27.601562 69.046875 28.488281 72.066406 30.113281 74.867188 C 30.234375 75.054688 30.339844 75.25 30.433594 75.449219 C 32.359375 78.78125 34.667969 81.816406 37.363281 84.558594 C 42.628906 90.03125 48.703125 94.375 55.582031 97.59375 C 55.765625 97.660156 55.945312 97.738281 56.117188 97.824219 C 57.203125 98.289062 58.339844 98.734375 59.398438 99.089844 C 63.691406 97.492188 67.703125 95.355469 71.425781 92.683594 C 71.613281 92.527344 71.8125 92.382812 72.023438 92.257812 C 75.339844 89.867188 78.394531 87.179688 81.183594 84.191406 C 87.425781 77.488281 90.835938 70.773438 90.792969 65.277344 Z M 90.5625 36.296875 " fill-opacity="1" fill-rule="nonzero"/></g></g></g></svg>